<svg width="100" height="100" viewBox="0 0 100 100" fill="none" xmlns="http://www.w3.org/2000/svg">
<path fill-rule="evenodd" clip-rule="evenodd" d="M53 68.1313C70.0687 63.9187 81.25 48.9812 81.25 31.25C81.25 22.962 77.9576 15.0134 72.0971 9.15291C66.2366 3.2924 58.288 0 50 0C41.712 0 33.7634 3.2924 27.9029 9.15291C22.0424 15.0134 18.75 22.962 18.75 31.25C18.75 48.9812 29.9313 63.9187 47 68.1313L45.475 71.175C45.3831 71.3588 45.3283 71.559 45.3137 71.764C45.2991 71.9691 45.3251 72.175 45.3901 72.37C45.5214 72.7638 45.8037 73.0893 46.175 73.275C46.5463 73.4607 46.9761 73.4912 47.37 73.3599C47.7638 73.2286 48.0893 72.9463 48.275 72.575L48.525 72.075C48.5812 73.1375 48.675 74.0438 48.8438 74.8875C49.2688 77.0375 50.1437 78.775 51.6437 81.775L51.725 81.95C53.05 84.5875 52.8625 87.2625 52.0375 89.7375C51.1938 92.25 49.75 94.4313 48.7 96.0063C48.4696 96.351 48.3856 96.7732 48.4665 97.1799C48.5473 97.5867 48.7865 97.9446 49.1313 98.175C49.476 98.4054 49.8982 98.4894 50.3049 98.4085C50.7117 98.3277 51.0696 98.0885 51.3 97.7437L51.325 97.7C52.3625 96.15 54.0188 93.6625 55 90.7313C56 87.7375 56.325 84.1625 54.525 80.55C52.9125 77.3312 52.2438 75.975 51.9063 74.275C51.7923 73.6782 51.7151 73.075 51.675 72.4688L51.725 72.575C51.9107 72.9463 52.2362 73.2286 52.63 73.3599C53.0239 73.4912 53.4537 73.4607 53.825 73.275C54.1963 73.0893 54.4786 72.7638 54.6099 72.37C54.7412 71.9761 54.7107 71.5463 54.525 71.175L53 68.1313ZM27.2 20.975C28.9632 17.0701 31.6994 13.6833 35.1466 11.139C38.5938 8.59465 42.6365 6.97796 46.8875 6.44375C48.5875 6.23125 50 7.65 50 9.375C50 11.1 48.5875 12.475 46.8875 12.7625C40.95 13.775 35.9562 17.6375 33.3062 22.8687C33.0138 23.4892 32.5554 24.0166 31.9818 24.3927C31.4083 24.7689 30.7418 24.979 30.0563 25C27.8938 25 26.3125 22.9437 27.2 20.975Z" fill="#28B0CE"/>
</svg>
