<svg width="100" height="100" viewBox="0 0 100 100" fill="none" xmlns="http://www.w3.org/2000/svg">
<g clip-path="url(#clip0_249_24)">
<path fill-rule="evenodd" clip-rule="evenodd" d="M18.75 46.875L40.625 59.375L50 54.6875L59.375 59.375L81.25 46.875V9.375C81.25 6.8886 80.2623 4.50403 78.5041 2.74587C76.746 0.98772 74.3614 0 71.875 0L28.125 0C25.6386 0 23.254 0.98772 21.4959 2.74587C19.7377 4.50403 18.75 6.8886 18.75 9.375V46.875ZM12.5 19.5812L6.61875 22.7187C4.61925 23.7849 2.94717 25.3745 1.78134 27.3176C0.615505 29.2606 -0.000226542 31.484 6.25243e-08 33.75V35.7062L12.5 43.0375V19.5812ZM87.5 43.0375L100 35.7062V33.75C100 31.484 99.3845 29.2606 98.2187 27.3176C97.0528 25.3745 95.3807 23.7849 93.3812 22.7187L87.5 19.5812V43.0375ZM64.4188 63.8125L100 42.9563V83.5813L64.4188 63.8125ZM99.6312 90.525L50 62.95L0.36875 90.525C1.04377 93.2314 2.60463 95.6343 4.80293 97.3513C7.00123 99.0683 9.71065 100.001 12.5 100H87.5C90.2894 100.001 92.9988 99.0683 95.1971 97.3513C97.3954 95.6343 98.9562 93.2314 99.6312 90.525ZM35.5812 63.8125L6.25243e-08 83.575V42.95L35.5812 63.8125ZM50 12.3875C60.4 1.93125 86.4062 20.225 50 43.75C13.5938 20.225 39.6 1.9375 50 12.3875Z" fill="white"/>
</g>
<defs>
<clipPath id="clip0_249_24">
<rect width="100" height="100" fill="white"/>
</clipPath>
</defs>
</svg>
